<svg width="24" height="22" viewBox="0 0 24 22" fill="none" xmlns="http://www.w3.org/2000/svg">
<g filter="url(#filter0_d_89_326)">
<path d="M11.9168 0.9375V1.34766C12.1612 1.39453 12.3981 1.45312 12.6119 1.51172C13.1008 1.64453 13.3911 2.16016 13.2613 2.66016C13.1314 3.16016 12.6272 3.45703 12.1383 3.32422C11.722 3.21094 11.3324 3.13281 10.9848 3.12891C10.706 3.125 10.4234 3.19531 10.2439 3.30078C10.1637 3.35156 10.1255 3.39453 10.1102 3.41797C10.0987 3.4375 10.0834 3.46484 10.0834 3.52734C10.0834 3.53906 10.0834 3.54688 10.0834 3.55078C10.0911 3.55859 10.1178 3.59766 10.2095 3.65234C10.431 3.78906 10.7595 3.89453 11.256 4.04688L11.2904 4.05859C11.7144 4.1875 12.2796 4.36328 12.738 4.65625C13.2613 4.99219 13.7349 5.55078 13.7463 6.41016C13.7578 7.28906 13.3109 7.92969 12.7265 8.30469C12.4706 8.46484 12.1956 8.57812 11.913 8.64844V9.0625C11.913 9.58203 11.5043 10 10.9963 10C10.4883 10 10.0796 9.58203 10.0796 9.0625V8.61719C9.71677 8.52734 9.38448 8.41016 9.10184 8.3125C9.02163 8.28516 8.94524 8.25781 8.87267 8.23438C8.39141 8.07031 8.13169 7.53906 8.2921 7.04688C8.45252 6.55469 8.97197 6.28906 9.45323 6.45312C9.55254 6.48828 9.6442 6.51953 9.73205 6.55078C10.2515 6.73047 10.6258 6.85938 11.0269 6.875C11.3324 6.88672 11.6036 6.8125 11.7602 6.71484C11.8328 6.66797 11.8671 6.62891 11.8824 6.60156C11.8977 6.57812 11.9168 6.53125 11.913 6.44141V6.43359C11.913 6.39453 11.913 6.35156 11.7602 6.25391C11.5425 6.11328 11.214 6.00391 10.7251 5.85156L10.6525 5.82812C10.24 5.70312 9.69768 5.53516 9.26225 5.26562C8.74662 4.94922 8.25009 4.40625 8.24627 3.54297C8.24245 2.64844 8.73898 2.03516 9.30427 1.69141C9.54872 1.54297 9.81226 1.44141 10.0758 1.37109V0.9375C10.0758 0.417969 10.4845 0 10.9925 0C11.5005 0 11.9092 0.417969 11.9092 0.9375H11.9168ZM21.7023 13.1367C22.2027 13.832 22.0575 14.8086 21.3777 15.3203L16.5422 18.9648C15.6484 19.6367 14.5713 20 13.4599 20H7.33341H1.22224C0.546187 20 0 19.4414 0 18.75V16.25C0 15.5586 0.546187 15 1.22224 15H2.62781L4.34276 13.5938C5.20978 12.8828 6.28687 12.5 7.39834 12.5H10.389H11.0001H13.4446C14.1206 12.5 14.6668 13.0586 14.6668 13.75C14.6668 14.4414 14.1206 15 13.4446 15H11.0001H10.389C10.0529 15 9.77788 15.2812 9.77788 15.625C9.77788 15.9688 10.0529 16.25 10.389 16.25H14.9953L19.5672 12.8047C20.2471 12.293 21.202 12.4414 21.7023 13.1367ZM7.39453 15H7.36015C7.37161 15 7.38307 15 7.39453 15Z" fill="white"/>
</g>
<defs>
<filter id="filter0_d_89_326" x="0" y="0" width="24" height="22" filterUnits="userSpaceOnUse" color-interpolation-filters="sRGB">
<feFlood flood-opacity="0" result="BackgroundImageFix"/>
<feColorMatrix in="SourceAlpha" type="matrix" values="0 0 0 0 0 0 0 0 0 0 0 0 0 0 0 0 0 0 127 0" result="hardAlpha"/>
<feOffset dx="2" dy="2"/>
<feComposite in2="hardAlpha" operator="out"/>
<feColorMatrix type="matrix" values="0 0 0 0 0 0 0 0 0 0 0 0 0 0 0 0 0 0 0.2 0"/>
<feBlend mode="normal" in2="BackgroundImageFix" result="effect1_dropShadow_89_326"/>
<feBlend mode="normal" in="SourceGraphic" in2="effect1_dropShadow_89_326" result="shape"/>
</filter>
</defs>
</svg>
