<svg width="23" height="26" viewBox="0 0 23 26" fill="none" xmlns="http://www.w3.org/2000/svg">
<g filter="url(#filter0_d_89_457)">
<path d="M10.4727 12C13.7782 12 16.4571 9.31406 16.4571 6C16.4571 2.68594 13.7782 0 10.4727 0C7.16727 0 4.48831 2.68594 4.48831 6C4.48831 9.31406 7.16727 12 10.4727 12ZM8.3361 14.25C3.73091 14.25 0 17.9906 0 22.6078C0 23.3766 0.621818 24 1.38857 24H19.5569C20.3236 24 20.9455 23.3766 20.9455 22.6078C20.9455 17.9906 17.2145 14.25 12.6094 14.25H8.3361Z" fill="white"/>
</g>
<defs>
<filter id="filter0_d_89_457" x="0" y="0" width="22.9454" height="26" filterUnits="userSpaceOnUse" color-interpolation-filters="sRGB">
<feFlood flood-opacity="0" result="BackgroundImageFix"/>
<feColorMatrix in="SourceAlpha" type="matrix" values="0 0 0 0 0 0 0 0 0 0 0 0 0 0 0 0 0 0 127 0" result="hardAlpha"/>
<feOffset dx="2" dy="2"/>
<feComposite in2="hardAlpha" operator="out"/>
<feColorMatrix type="matrix" values="0 0 0 0 0 0 0 0 0 0 0 0 0 0 0 0 0 0 0.2 0"/>
<feBlend mode="normal" in2="BackgroundImageFix" result="effect1_dropShadow_89_457"/>
<feBlend mode="normal" in="SourceGraphic" in2="effect1_dropShadow_89_457" result="shape"/>
</filter>
</defs>
</svg>
