<svg width="20" height="20" viewBox="0 0 20 20" fill="none" xmlns="http://www.w3.org/2000/svg">
<path d="M14.6868 0.830034C15.7929 -0.276678 17.588 -0.276678 18.6941 0.830034L19.1704 1.30709C20.2765 2.41392 20.2765 4.20838 19.1704 5.31443L11.4078 13.0803C11.0653 13.4188 10.6441 13.6668 10.1796 13.8006L6.24317 14.9264C5.91251 15.0208 5.55823 14.9264 5.31418 14.6508C5.07405 14.4422 4.97958 14.088 5.07405 13.7574L6.19987 9.82126C6.33371 9.3568 6.58171 8.93564 6.92024 8.59319L14.6868 0.830034ZM17.3242 2.16594C16.9896 1.79713 16.3913 1.79713 16.0213 2.16594L14.8758 3.31096L16.6904 5.1255L17.8359 3.94467C18.206 3.6101 18.206 3.01181 17.8359 2.643L17.3242 2.16594ZM8.0185 10.3408L7.35718 12.6434L9.65999 11.9822C9.81745 11.9389 9.95522 11.8562 10.0694 11.7421L15.356 6.45983L13.5413 4.64529L8.25862 9.93147C8.14447 10.0456 8.0618 10.1834 8.0185 10.3408ZM7.87285 2.36629C8.3964 2.36629 8.8176 2.78942 8.8176 3.31096C8.8176 3.83446 8.3964 4.25562 7.87285 4.25562H3.46406C2.5945 4.25562 1.88948 4.96018 1.88948 5.83006V16.5362C1.88948 17.4061 2.5945 18.1107 3.46406 18.1107H14.1711C15.0411 18.1107 15.7457 17.4061 15.7457 16.5362V12.1278C15.7457 11.6043 16.1669 11.1831 16.6904 11.1831C17.214 11.1831 17.6352 11.6043 17.6352 12.1278V16.5362C17.6352 18.4492 16.0842 20 14.1711 20H3.46406C1.55095 20 0 18.4492 0 16.5362V5.83006C0 3.91711 1.55095 2.36629 3.46406 2.36629H7.87285Z" fill="#0EB934"/>
</svg>
