<svg width="24" height="24" viewBox="0 0 24 24" fill="none" xmlns="http://www.w3.org/2000/svg">
<g filter="url(#filter0_d_89_324)">
<path d="M13.75 4.125H8.25L6.21328 1.06992C5.9082 0.610156 6.23477 0 6.78477 0H15.2152C15.7652 0 16.0918 0.610156 15.7867 1.06992L13.75 4.125ZM8.25 5.5H13.75C13.9133 5.60742 14.098 5.72773 14.3086 5.86094C16.7449 7.4207 22 10.7809 22 17.875C22 20.1523 20.1523 22 17.875 22H4.125C1.84766 22 0 20.1523 0 17.875C0 10.7809 5.25508 7.4207 7.69141 5.86094C7.89766 5.72773 8.08672 5.60742 8.25 5.5ZM11.8637 9.625C11.8637 9.14805 11.477 8.76133 11 8.76133C10.523 8.76133 10.1363 9.14805 10.1363 9.625V9.88281C9.8957 9.93437 9.66797 10.0074 9.45312 10.102C8.80859 10.3941 8.2543 10.9355 8.1168 11.7219C8.03945 12.1602 8.08242 12.5812 8.26289 12.968C8.44336 13.3461 8.72266 13.6125 9.00625 13.8059C9.50469 14.1453 10.1621 14.343 10.6648 14.4934L10.7594 14.5234C11.3566 14.7039 11.7648 14.8414 12.0184 15.0262C12.1258 15.1035 12.1645 15.1637 12.1816 15.2023C12.1945 15.2367 12.2203 15.3141 12.1902 15.4902C12.1645 15.6406 12.0828 15.7652 11.8465 15.8684C11.5844 15.9801 11.159 16.0359 10.609 15.95C10.3512 15.907 9.89141 15.7523 9.4832 15.6105C9.38867 15.5762 9.29844 15.5461 9.2125 15.5203C8.76133 15.3699 8.27578 15.6148 8.12539 16.066C7.975 16.5172 8.21992 17.0027 8.67109 17.1531C8.72266 17.1703 8.78711 17.1918 8.86016 17.2176C9.19961 17.3336 9.73242 17.5141 10.1406 17.6086V17.875C10.1406 18.352 10.5273 18.7387 11.0043 18.7387C11.4812 18.7387 11.868 18.352 11.868 17.875V17.6387C12.1 17.5957 12.3191 17.5312 12.5297 17.441C13.2043 17.1531 13.75 16.5945 13.8875 15.7781C13.9648 15.3313 13.9305 14.9059 13.7586 14.5148C13.591 14.1281 13.3203 13.8445 13.0324 13.634C12.5082 13.2559 11.8164 13.0453 11.2965 12.8863L11.2621 12.8777C10.652 12.693 10.2395 12.5641 9.97734 12.3879C9.86562 12.3105 9.83125 12.259 9.82266 12.2375C9.81406 12.2246 9.79258 12.1687 9.81836 12.0227C9.83125 11.941 9.9 11.7992 10.1707 11.6746C10.4457 11.55 10.8754 11.4812 11.3996 11.5629C11.5844 11.593 12.1687 11.7047 12.332 11.7477C12.7918 11.868 13.2602 11.5973 13.3848 11.1375C13.5094 10.6777 13.2344 10.2094 12.7746 10.0848C12.5855 10.0332 12.1559 9.94727 11.8723 9.8957V9.625H11.8637Z" fill="white"/>
</g>
<defs>
<filter id="filter0_d_89_324" x="0" y="0" width="24" height="24" filterUnits="userSpaceOnUse" color-interpolation-filters="sRGB">
<feFlood flood-opacity="0" result="BackgroundImageFix"/>
<feColorMatrix in="SourceAlpha" type="matrix" values="0 0 0 0 0 0 0 0 0 0 0 0 0 0 0 0 0 0 127 0" result="hardAlpha"/>
<feOffset dx="2" dy="2"/>
<feComposite in2="hardAlpha" operator="out"/>
<feColorMatrix type="matrix" values="0 0 0 0 0 0 0 0 0 0 0 0 0 0 0 0 0 0 0.2 0"/>
<feBlend mode="normal" in2="BackgroundImageFix" result="effect1_dropShadow_89_324"/>
<feBlend mode="normal" in="SourceGraphic" in2="effect1_dropShadow_89_324" result="shape"/>
</filter>
</defs>
</svg>
