<svg width="24" height="24" viewBox="0 0 24 24" fill="none" xmlns="http://www.w3.org/2000/svg">
<g filter="url(#filter0_d_89_455)">
<path d="M14.0379 17.3465C13.0883 17.6902 12.0656 17.875 11 17.875C9.93437 17.875 8.90742 17.6859 7.96211 17.3465C7.94922 17.3422 7.94063 17.3379 7.92773 17.3336C6.63867 16.8609 5.48711 16.1004 4.55039 15.125C3.00781 13.518 2.0625 11.3395 2.0625 8.9375C2.0625 4.00039 6.06289 0 11 0C15.9371 0 19.9375 4.00039 19.9375 8.9375C19.9375 11.3395 18.9922 13.518 17.4496 15.125C17.4066 15.168 17.3637 15.2152 17.3207 15.2582C16.4012 16.1777 15.284 16.8953 14.0422 17.3465H14.0379ZM11 3.94883C10.523 3.94883 10.1363 4.33555 10.1363 4.8125V5.07031C9.8957 5.12187 9.66797 5.19492 9.45312 5.28945C8.80859 5.58164 8.2543 6.12305 8.1168 6.90938C8.03945 7.34766 8.08242 7.76875 8.26289 8.15547C8.44336 8.53359 8.72266 8.8 9.00625 8.99336C9.50469 9.33281 10.1621 9.53047 10.6648 9.68086L10.7594 9.71094C11.3566 9.89141 11.7648 10.0289 12.0184 10.2137C12.1258 10.291 12.1645 10.3512 12.1816 10.3855C12.1945 10.4199 12.2203 10.4973 12.1902 10.6734C12.1645 10.8238 12.0828 10.9484 11.8465 11.0516C11.5844 11.1633 11.159 11.2191 10.609 11.1332C10.3512 11.0902 9.89141 10.9355 9.4832 10.7937C9.38867 10.7637 9.29844 10.7293 9.2082 10.7035C8.75703 10.5531 8.27148 10.798 8.12109 11.2492C7.9707 11.7004 8.21562 12.1859 8.6668 12.3363C8.71836 12.3535 8.78281 12.375 8.85586 12.4008C9.19531 12.5168 9.72812 12.6973 10.1363 12.7918V13.0625C10.1363 13.5395 10.523 13.9262 11 13.9262C11.477 13.9262 11.8637 13.5395 11.8637 13.0625V12.8262C12.0957 12.7832 12.3148 12.7188 12.5254 12.6285C13.2 12.3406 13.7457 11.782 13.8832 10.9656C13.9605 10.5188 13.9262 10.0934 13.7543 9.70234C13.5867 9.31563 13.316 9.03203 13.0281 8.82148C12.5039 8.44336 11.8121 8.23281 11.2922 8.07383L11.2578 8.06523C10.6477 7.88047 10.2352 7.75156 9.97305 7.57539C9.86133 7.49805 9.82695 7.44648 9.81836 7.425C9.80977 7.41211 9.78828 7.35625 9.81406 7.21016C9.82695 7.12852 9.8957 6.98672 10.1664 6.86211C10.4414 6.7375 10.8711 6.66875 11.3953 6.75039C11.5801 6.78047 12.1645 6.89219 12.3277 6.93516C12.7875 7.05547 13.2559 6.78477 13.3805 6.325C13.5051 5.86523 13.2301 5.39687 12.7703 5.27227C12.5813 5.2207 12.1516 5.13477 11.868 5.0832V4.8125C11.868 4.33555 11.4812 3.94883 11.0043 3.94883H11ZM2.0625 15.125H2.75C3.58789 16.2379 4.64062 17.1746 5.85234 17.875H2.75V19.25H11H19.25V17.875H16.1477C17.3594 17.1746 18.4164 16.2379 19.25 15.125H19.9375C21.0762 15.125 22 16.0488 22 17.1875V19.9375C22 21.0762 21.0762 22 19.9375 22H2.0625C0.923828 22 0 21.0762 0 19.9375V17.1875C0 16.0488 0.923828 15.125 2.0625 15.125Z" fill="white"/>
</g>
<defs>
<filter id="filter0_d_89_455" x="0" y="0" width="24" height="24" filterUnits="userSpaceOnUse" color-interpolation-filters="sRGB">
<feFlood flood-opacity="0" result="BackgroundImageFix"/>
<feColorMatrix in="SourceAlpha" type="matrix" values="0 0 0 0 0 0 0 0 0 0 0 0 0 0 0 0 0 0 127 0" result="hardAlpha"/>
<feOffset dx="2" dy="2"/>
<feComposite in2="hardAlpha" operator="out"/>
<feColorMatrix type="matrix" values="0 0 0 0 0 0 0 0 0 0 0 0 0 0 0 0 0 0 0.2 0"/>
<feBlend mode="normal" in2="BackgroundImageFix" result="effect1_dropShadow_89_455"/>
<feBlend mode="normal" in="SourceGraphic" in2="effect1_dropShadow_89_455" result="shape"/>
</filter>
</defs>
</svg>
